<?xml version="1.0" encoding="UTF-8"?>
<!-- RideAudit wireframe WF-01. License: GPL-2.0. Inline SVG icons. -->
<svg xmlns="http://www.w3.org/2000/svg" width="460" height="940" viewBox="0 0 460 940" role="img">
<title>WF-01 Splash / role select</title>
<desc>Android splash. Driver role is selected, so Continue is enabled. GPL-2.0 and Play Integrity are visible.</desc>
<defs>
<clipPath id="screen"><rect x="38" y="30" width="384" height="880" rx="36"/></clipPath>
</defs>
<rect x="0" y="0" width="460" height="940" rx="0" fill="#E6EDF4"/>
<rect x="28" y="26" width="408" height="908" rx="50" fill="#C9D3DF"/>
<rect x="26" y="16" width="408" height="908" rx="50" fill="#12161C"/>
<rect x="18" y="148" width="8" height="26" rx="2" fill="#3C4656"/>
<rect x="18" y="186" width="8" height="46" rx="2" fill="#3C4656"/>
<rect x="434" y="172" width="8" height="68" rx="2" fill="#3C4656"/>
<g clip-path="url(#screen)">
<rect x="38" y="30" width="384" height="880" rx="0" fill="#F4F7FA"/>
<rect x="38" y="30" width="384" height="46" rx="0" fill="#FFFFFF"/>
<text x="54" y="57.5" fill="#1A2433" font-family="Inter, Segoe UI, Roboto, Helvetica, Arial, sans-serif" font-size="13" font-weight="600" text-anchor="start">12:56</text>
<g transform="translate(380 44) scale(0.92)"><rect x="1.8" y="7.2" width="18.2" height="9.6" rx="2" fill="none" stroke="#1A2433" stroke-width="1.7" stroke-linejoin="round"/><rect x="20.4" y="10.2" width="1.8" height="3.6" rx="0.6" fill="#1A2433"/><rect x="3.6" y="9.1" width="9.516" height="5.8" rx="1" fill="#1A2433"/></g>
<g transform="translate(358 45) scale(0.67)"><path d="M8 7.2 16.2 16.6 12 20.6V3.4l4.2 4.2L8 16.6" fill="none" stroke="#1A2433" stroke-width="1.9" stroke-linecap="round" stroke-linejoin="round"/></g>
<text x="335.03" y="57" fill="#1A2433" font-family="Inter, Segoe UI, Roboto, Helvetica, Arial, sans-serif" font-size="11" font-weight="600" text-anchor="start">5G</text>
<g transform="translate(313.03 45) scale(0.67)"><rect x="2.2" y="15" width="3.3" height="5" rx="1" fill="#1A2433" fill-opacity="1"/><rect x="7.7" y="11" width="3.3" height="9" rx="1" fill="#1A2433" fill-opacity="1"/><rect x="13.2" y="7" width="3.3" height="13" rx="1" fill="#1A2433" fill-opacity="1"/><rect x="18.7" y="3" width="3.3" height="17" rx="1" fill="#1A2433" fill-opacity="1"/></g>
<rect x="198" y="104" width="64" height="64" rx="32" fill="#173E66"/><g transform="translate(213.36 119.36) scale(1.39)"><path d="M12 2.8 20.2 6.1v6.2c0 4.3-3.2 7.3-8.2 8.8-5-1.5-8.2-4.5-8.2-8.8V6.1Z" fill="none" stroke="#FFFFFF" stroke-width="1.7" stroke-linecap="round" stroke-linejoin="round"/><path d="M8.5 12.1 11.1 14.7 15.8 9.6" fill="none" stroke="#FFFFFF" stroke-width="1.7" stroke-linecap="round" stroke-linejoin="round"/></g>
<text x="230" y="184" fill="#1A2433" font-family="Inter, Segoe UI, Roboto, Helvetica, Arial, sans-serif" font-size="28" font-weight="700" text-anchor="middle">RideAudit</text>
<text x="230" y="210" fill="#5C6B7C" font-family="Inter, Segoe UI, Roboto, Helvetica, Arial, sans-serif" font-size="14" font-weight="400" text-anchor="middle">Dual-phone telematics audit</text>
<rect x="118.95" y="228" width="81.81" height="26" rx="13" fill="#FFF4D8"/><g transform="translate(126.95 234) scale(0.58)"><path d="M12 3v17.2" fill="none" stroke="#8A5A00" stroke-width="2" stroke-linecap="round" stroke-linejoin="round"/><path d="M7.8 20.6h8.4" fill="none" stroke="#8A5A00" stroke-width="2" stroke-linecap="round" stroke-linejoin="round"/><path d="M4.2 7.2h15.6" fill="none" stroke="#8A5A00" stroke-width="2" stroke-linecap="round" stroke-linejoin="round"/><path d="M4.2 7.2 2.6 13.2" fill="none" stroke="#8A5A00" stroke-width="2" stroke-linecap="round" stroke-linejoin="round"/><path d="M4.2 7.2 5.8 13.2" fill="none" stroke="#8A5A00" stroke-width="2" stroke-linecap="round" stroke-linejoin="round"/><path d="M2.6 13.2h3.2" fill="none" stroke="#8A5A00" stroke-width="2" stroke-linecap="round" stroke-linejoin="round"/><path d="M2.6 13.2Q4.2 16.4 5.8 13.2" fill="none" stroke="#8A5A00" stroke-width="2" stroke-linecap="round" stroke-linejoin="round"/><path d="M19.8 7.2 18.2 13.2" fill="none" stroke="#8A5A00" stroke-width="2" stroke-linecap="round" stroke-linejoin="round"/><path d="M19.8 7.2 21.4 13.2" fill="none" stroke="#8A5A00" stroke-width="2" stroke-linecap="round" stroke-linejoin="round"/><path d="M18.2 13.2h3.2" fill="none" stroke="#8A5A00" stroke-width="2" stroke-linecap="round" stroke-linejoin="round"/><path d="M18.2 13.2Q19.8 16.4 21.4 13.2" fill="none" stroke="#8A5A00" stroke-width="2" stroke-linecap="round" stroke-linejoin="round"/></g><text x="145.95" y="245.5" fill="#8A5A00" font-family="Inter, Segoe UI, Roboto, Helvetica, Arial, sans-serif" font-size="12" font-weight="600" text-anchor="start">GPL-2.0</text>
<rect x="208.77" y="228" width="132.28" height="26" rx="13" fill="#E5F6F1"/><g transform="translate(216.77 234) scale(0.58)"><path d="M12 2.8 20.2 6.1v6.2c0 4.3-3.2 7.3-8.2 8.8-5-1.5-8.2-4.5-8.2-8.8V6.1Z" fill="none" stroke="#0C7A62" stroke-width="2" stroke-linecap="round" stroke-linejoin="round"/><path d="M8.5 12.1 11.1 14.7 15.8 9.6" fill="none" stroke="#0C7A62" stroke-width="2" stroke-linecap="round" stroke-linejoin="round"/></g><text x="235.77" y="245.5" fill="#0C7A62" font-family="Inter, Segoe UI, Roboto, Helvetica, Arial, sans-serif" font-size="12" font-weight="600" text-anchor="start">Play Integrity OK</text>
<text x="230" y="270" fill="#5C6B7C" font-family="Inter, Segoe UI, Roboto, Helvetica, Arial, sans-serif" font-size="13" font-weight="600" text-anchor="middle">Select your role for this session</text>
<rect x="54" y="286" width="352" height="96" rx="14" fill="#FFFFFF" stroke="#173E66" stroke-width="1.75"/><rect x="55.5" y="300" width="3.5" height="68" rx="2" fill="#173E66"/><rect x="68" y="310" width="48" height="48" rx="24" fill="#E7F1FA"/><g transform="translate(79.52 321.52) scale(1.04)"><circle cx="12" cy="12" r="8" fill="none" stroke="#173E66" stroke-width="1.8"/><circle cx="12" cy="12" r="2.2" fill="none" stroke="#173E66" stroke-width="1.8"/><path d="M12 4v5.8" fill="none" stroke="#173E66" stroke-width="1.8" stroke-linecap="round" stroke-linejoin="round"/><path d="M5.1 15.5 9.5 13" fill="none" stroke="#173E66" stroke-width="1.8" stroke-linecap="round" stroke-linejoin="round"/><path d="M18.9 15.5 14.5 13" fill="none" stroke="#173E66" stroke-width="1.8" stroke-linecap="round" stroke-linejoin="round"/></g><text x="130" y="318" fill="#1A2433" font-family="Inter, Segoe UI, Roboto, Helvetica, Arial, sans-serif" font-size="16" font-weight="700" text-anchor="start">Driver</text><text x="130" y="340" fill="#1A2433" font-family="Inter, Segoe UI, Roboto, Helvetica, Arial, sans-serif" font-size="13" font-weight="500" text-anchor="start">Session coordinator</text><text x="130" y="360" fill="#5C6B7C" font-family="Inter, Segoe UI, Roboto, Helvetica, Arial, sans-serif" font-size="12" font-weight="400" text-anchor="start">Clock master and sealed submit</text><g transform="translate(370 322) scale(0.92)"><circle cx="12" cy="12" r="8" fill="none" stroke="#173E66" stroke-width="1.8"/><circle cx="12" cy="12" r="4.2" fill="#173E66"/></g>
<rect x="54" y="394" width="352" height="96" rx="14" fill="#FFFFFF" stroke="#D5DEE8" stroke-width="1"/><rect x="68" y="418" width="48" height="48" rx="24" fill="#E8EEF5"/><g transform="translate(79.52 429.52) scale(1.04)"><rect x="2.2" y="6.8" width="12.4" height="10.4" rx="1.8" fill="none" stroke="#1A2433" stroke-width="1.8" stroke-linejoin="round"/><path d="M15.2 10.2 21.4 7.2v9.6l-6.2-2.8z" fill="#1A2433" stroke="none" stroke-linejoin="round"/></g><text x="130" y="426" fill="#1A2433" font-family="Inter, Segoe UI, Roboto, Helvetica, Arial, sans-serif" font-size="16" font-weight="700" text-anchor="start">Passenger</text><text x="130" y="448" fill="#1A2433" font-family="Inter, Segoe UI, Roboto, Helvetica, Arial, sans-serif" font-size="13" font-weight="500" text-anchor="start">Video sync and composite</text><text x="130" y="468" fill="#5C6B7C" font-family="Inter, Segoe UI, Roboto, Helvetica, Arial, sans-serif" font-size="12" font-weight="400" text-anchor="start">Telematics overlay</text><g transform="translate(370 430) scale(0.92)"><circle cx="12" cy="12" r="8" fill="none" stroke="#8B98A8" stroke-width="1.8"/></g>
<text x="54" y="702" fill="#5C6B7C" font-family="Inter, Segoe UI, Roboto, Helvetica, Arial, sans-serif" font-size="12" font-weight="600" text-anchor="start">Vehicle</text><rect x="54" y="710" width="352" height="44" rx="10" fill="#FFFFFF" stroke="#C5D0DC" stroke-width="1.25"/><g transform="translate(66 722) scale(0.83)"><path d="M3.6 15.6h16.8" fill="none" stroke="#5C6B7C" stroke-width="1.8" stroke-linecap="round" stroke-linejoin="round"/><path d="M6.1 15.6 7.5 10.4A2 2 0 0 1 9.4 8.9h5.2a2 2 0 0 1 1.9 1.5l1.4 5.2" fill="none" stroke="#5C6B7C" stroke-width="1.8" stroke-linecap="round" stroke-linejoin="round"/><path d="M9.2 9.1 10.1 12.2h3.8l.9-3.1" fill="none" stroke="#5C6B7C" stroke-width="1.8" stroke-linecap="round" stroke-linejoin="round"/><circle cx="7.5" cy="16.8" r="1.45" fill="#5C6B7C"/><circle cx="16.5" cy="16.8" r="1.45" fill="#5C6B7C"/></g><text x="94" y="737" fill="#1A2433" font-family="Inter, Segoe UI, Roboto, Helvetica, Arial, sans-serif" font-size="14" font-weight="500" text-anchor="start">VA-1042</text><g transform="translate(374 722) scale(0.75)"><path d="M5.6 9 12 15.4 18.4 9" fill="none" stroke="#5C6B7C" stroke-width="1.9" stroke-linecap="round" stroke-linejoin="round"/></g>
<rect x="54" y="768" width="352" height="48" rx="12" fill="#173E66"/><g transform="translate(111.09 783) scale(0.75)"><path d="M8 7.2 16.2 16.6 12 20.6V3.4l4.2 4.2L8 16.6" fill="none" stroke="#FFFFFF" stroke-width="1.9" stroke-linecap="round" stroke-linejoin="round"/></g><text x="137.09" y="797.5" fill="#FFFFFF" font-family="Inter, Segoe UI, Roboto, Helvetica, Arial, sans-serif" font-size="15" font-weight="600" text-anchor="start">Continue to Bluetooth pairing</text>
<rect x="54" y="820" width="352" height="44" rx="12" fill="#FFFFFF" stroke="#173E66" stroke-width="1.5"/>
<text x="230" y="847" fill="#173E66" font-family="Inter, Segoe UI, Roboto, Helvetica, Arial, sans-serif" font-size="16" font-weight="600" text-anchor="middle">About</text>
<rect x="172" y="884" width="116" height="5" rx="2.5" fill="#C5D0DC"/>
</g>
<circle cx="230" cy="52" r="6" fill="#12161C"/>
<rect x="38" y="30" width="384" height="880" rx="36" fill="none" stroke="#12161C" stroke-width="3"/>
</svg>
