<?xml version="1.0" encoding="UTF-8"?>
<!-- RideAudit wireframe WF-R-05. License: GPL-2.0. Inline SVG icons. -->
<svg xmlns="http://www.w3.org/2000/svg" width="1320" height="868" viewBox="0 0 1320 868" role="img">
<title>WF-R-05 Escrow release quorum</title>
<desc>M-of-N CourtRelease. One of two required approvals is in. Attach stays disabled.</desc>
<defs>
<clipPath id="win"><rect x="24" y="18" width="1272" height="832" rx="12"/></clipPath>
</defs>
<rect x="0" y="0" width="1320" height="868" rx="0" fill="#E6EDF4"/>
<rect x="28" y="28" width="1272" height="832" rx="12" fill="#C5D0DC"/>
<g clip-path="url(#win)">
<rect x="24" y="18" width="1272" height="832" rx="0" fill="#FFFFFF"/>
<rect x="40" y="28" width="28" height="28" rx="14" fill="#173E66"/><g transform="translate(46.72 34.72) scale(0.61)"><path d="M2.8 19.4h7.4" fill="none" stroke="#FFFFFF" stroke-width="1.8" stroke-linecap="round" stroke-linejoin="round"/><path d="M13.4 19.4H21.2" fill="none" stroke="#FFFFFF" stroke-width="1.8" stroke-linecap="round" stroke-linejoin="round"/><path d="M8.2 16.2 14.4 10" fill="none" stroke="#FFFFFF" stroke-width="1.8" stroke-linecap="round" stroke-linejoin="round"/><path d="M12.6 6.4 17.4 1.8 22.2 6.6 17.4 11.4Z" fill="none" stroke="#FFFFFF" stroke-width="1.8" stroke-linecap="round" stroke-linejoin="round"/></g>
<text x="78" y="47.5" fill="#1A2433" font-family="Inter, Segoe UI, Roboto, Helvetica, Arial, sans-serif" font-size="15" font-weight="700" text-anchor="start">RideAudit Court Review</text>
<rect x="260.88" y="29" width="77.89" height="24" rx="12" fill="#FFF4D8"/><g transform="translate(268.88 34) scale(0.58)"><path d="M12 3v17.2" fill="none" stroke="#8A5A00" stroke-width="2" stroke-linecap="round" stroke-linejoin="round"/><path d="M7.8 20.6h8.4" fill="none" stroke="#8A5A00" stroke-width="2" stroke-linecap="round" stroke-linejoin="round"/><path d="M4.2 7.2h15.6" fill="none" stroke="#8A5A00" stroke-width="2" stroke-linecap="round" stroke-linejoin="round"/><path d="M4.2 7.2 2.6 13.2" fill="none" stroke="#8A5A00" stroke-width="2" stroke-linecap="round" stroke-linejoin="round"/><path d="M4.2 7.2 5.8 13.2" fill="none" stroke="#8A5A00" stroke-width="2" stroke-linecap="round" stroke-linejoin="round"/><path d="M2.6 13.2h3.2" fill="none" stroke="#8A5A00" stroke-width="2" stroke-linecap="round" stroke-linejoin="round"/><path d="M2.6 13.2Q4.2 16.4 5.8 13.2" fill="none" stroke="#8A5A00" stroke-width="2" stroke-linecap="round" stroke-linejoin="round"/><path d="M19.8 7.2 18.2 13.2" fill="none" stroke="#8A5A00" stroke-width="2" stroke-linecap="round" stroke-linejoin="round"/><path d="M19.8 7.2 21.4 13.2" fill="none" stroke="#8A5A00" stroke-width="2" stroke-linecap="round" stroke-linejoin="round"/><path d="M18.2 13.2h3.2" fill="none" stroke="#8A5A00" stroke-width="2" stroke-linecap="round" stroke-linejoin="round"/><path d="M18.2 13.2Q19.8 16.4 21.4 13.2" fill="none" stroke="#8A5A00" stroke-width="2" stroke-linecap="round" stroke-linejoin="round"/></g><text x="287.88" y="45" fill="#8A5A00" font-family="Inter, Segoe UI, Roboto, Helvetica, Arial, sans-serif" font-size="11" font-weight="600" text-anchor="start">GPL-2.0</text>
<text x="1128" y="46.5" fill="#394656" font-family="JetBrains Mono, ui-monospace, SFMono-Regular, Menlo, Consolas, monospace" font-size="12" font-weight="500" text-anchor="start">v0.1.0</text>
<g transform="translate(1172 34) scale(0.67)"><path d="M5 12h14" fill="none" stroke="#394656" stroke-width="1.8" stroke-linecap="round" stroke-linejoin="round"/></g>
<g transform="translate(1210 34) scale(0.67)"><rect x="6" y="6" width="12" height="12" rx="1.6" fill="none" stroke="#394656" stroke-width="1.8" stroke-linejoin="round"/></g>
<g transform="translate(1248 34) scale(0.67)"><path d="M6 6 18 18" fill="none" stroke="#B42318" stroke-width="1.8" stroke-linecap="round" stroke-linejoin="round"/><path d="M18 6 6 18" fill="none" stroke="#B42318" stroke-width="1.8" stroke-linecap="round" stroke-linejoin="round"/></g>
<line x1="24" y1="66" x2="1296" y2="66" stroke="#D5DEE8" stroke-width="1"/>
<text x="50" y="90.5" fill="#394656" font-family="Inter, Segoe UI, Roboto, Helvetica, Arial, sans-serif" font-size="13" font-weight="500" text-anchor="start">File</text>
<text x="101.86" y="90.5" fill="#394656" font-family="Inter, Segoe UI, Roboto, Helvetica, Arial, sans-serif" font-size="13" font-weight="500" text-anchor="start">Case</text>
<text x="163.41" y="90.5" fill="#394656" font-family="Inter, Segoe UI, Roboto, Helvetica, Arial, sans-serif" font-size="13" font-weight="500" text-anchor="start">Verify</text>
<rect x="216.41" y="72" width="74.66" height="28" rx="8" fill="#E7F1FA"/>
<text x="230.41" y="90.5" fill="#173E66" font-family="Inter, Segoe UI, Roboto, Helvetica, Arial, sans-serif" font-size="13" font-weight="700" text-anchor="start">Escrow</text>
<text x="307.06" y="90.5" fill="#394656" font-family="Inter, Segoe UI, Roboto, Helvetica, Arial, sans-serif" font-size="13" font-weight="500" text-anchor="start">Playback</text>
<text x="393.69" y="90.5" fill="#394656" font-family="Inter, Segoe UI, Roboto, Helvetica, Arial, sans-serif" font-size="13" font-weight="500" text-anchor="start">Export</text>
<text x="464.34" y="90.5" fill="#394656" font-family="Inter, Segoe UI, Roboto, Helvetica, Arial, sans-serif" font-size="13" font-weight="500" text-anchor="start">Help</text>
<line x1="24" y1="106" x2="1296" y2="106" stroke="#D5DEE8" stroke-width="1"/>
<text x="52" y="148" fill="#1A2433" font-family="Inter, Segoe UI, Roboto, Helvetica, Arial, sans-serif" font-size="22" font-weight="700" text-anchor="start">Court release / escrow</text>
<rect x="1186.52" y="126" width="81.48" height="26" rx="13" fill="#FFF4D8"/><g transform="translate(1194.52 132) scale(0.58)"><path d="M8 11V8.1a4 4 0 0 1 8 0V11" fill="none" stroke="#8A5A00" stroke-width="2" stroke-linecap="round" stroke-linejoin="round"/><rect x="5.4" y="11" width="13.2" height="8.6" rx="1.8" fill="none" stroke="#8A5A00" stroke-width="2" stroke-linejoin="round"/></g><text x="1213.52" y="143.5" fill="#8A5A00" font-family="Inter, Segoe UI, Roboto, Helvetica, Arial, sans-serif" font-size="12" font-weight="600" text-anchor="start">Blocked</text>
<text x="52" y="172" fill="#394656" font-family="Inter, Segoe UI, Roboto, Helvetica, Arial, sans-serif" font-size="13" font-weight="400" text-anchor="start">Case CASE-2026-0914-A1    Record passenger-composite-01    Verification gate: pass</text>
<rect x="52" y="192" width="1216" height="72" rx="14" fill="#FFFFFF" stroke="#D5DEE8" stroke-width="1"/>
<rect x="66" y="208" width="40" height="40" rx="20" fill="#E7F1FA"/><g transform="translate(75.6 217.6) scale(0.87)"><path d="M12 3v17.2" fill="none" stroke="#173E66" stroke-width="1.8" stroke-linecap="round" stroke-linejoin="round"/><path d="M7.8 20.6h8.4" fill="none" stroke="#173E66" stroke-width="1.8" stroke-linecap="round" stroke-linejoin="round"/><path d="M4.2 7.2h15.6" fill="none" stroke="#173E66" stroke-width="1.8" stroke-linecap="round" stroke-linejoin="round"/><path d="M4.2 7.2 2.6 13.2" fill="none" stroke="#173E66" stroke-width="1.8" stroke-linecap="round" stroke-linejoin="round"/><path d="M4.2 7.2 5.8 13.2" fill="none" stroke="#173E66" stroke-width="1.8" stroke-linecap="round" stroke-linejoin="round"/><path d="M2.6 13.2h3.2" fill="none" stroke="#173E66" stroke-width="1.8" stroke-linecap="round" stroke-linejoin="round"/><path d="M2.6 13.2Q4.2 16.4 5.8 13.2" fill="none" stroke="#173E66" stroke-width="1.8" stroke-linecap="round" stroke-linejoin="round"/><path d="M19.8 7.2 18.2 13.2" fill="none" stroke="#173E66" stroke-width="1.8" stroke-linecap="round" stroke-linejoin="round"/><path d="M19.8 7.2 21.4 13.2" fill="none" stroke="#173E66" stroke-width="1.8" stroke-linecap="round" stroke-linejoin="round"/><path d="M18.2 13.2h3.2" fill="none" stroke="#173E66" stroke-width="1.8" stroke-linecap="round" stroke-linejoin="round"/><path d="M18.2 13.2Q19.8 16.4 21.4 13.2" fill="none" stroke="#173E66" stroke-width="1.8" stroke-linecap="round" stroke-linejoin="round"/></g>
<text x="120" y="222" fill="#1A2433" font-family="Inter, Segoe UI, Roboto, Helvetica, Arial, sans-serif" font-size="15" font-weight="700" text-anchor="start">Policy  2 of 3 custodians</text>
<text x="120" y="244" fill="#394656" font-family="Inter, Segoe UI, Roboto, Helvetica, Arial, sans-serif" font-size="13" font-weight="400" text-anchor="start">M-of-N dual control. Sealed blob and custody receipt stay unchanged.</text>
<text x="1252" y="224" fill="#8A5A00" font-family="Inter, Segoe UI, Roboto, Helvetica, Arial, sans-serif" font-size="18" font-weight="700" text-anchor="end">1 / 2</text>
<rect x="52" y="276" width="1216" height="68" rx="14" fill="#FFFFFF" stroke="#D5DEE8" stroke-width="1"/><circle cx="88" cy="310" r="18" fill="#0C7A62"/><text x="88" y="315" fill="#FFFFFF" font-family="Inter, Segoe UI, Roboto, Helvetica, Arial, sans-serif" font-size="14" font-weight="700" text-anchor="middle">A</text><text x="120" y="304" fill="#1A2433" font-family="Inter, Segoe UI, Roboto, Helvetica, Arial, sans-serif" font-size="15" font-weight="700" text-anchor="start">Custodian A</text><text x="120" y="326" fill="#394656" font-family="Inter, Segoe UI, Roboto, Helvetica, Arial, sans-serif" font-size="12" font-weight="500" text-anchor="start">Court clerk</text><rect x="1160.3" y="297" width="91.7" height="26" rx="13" fill="#E5F6F1"/><g transform="translate(1168.3 303) scale(0.58)"><path d="M4.8 12.5 9.5 17.1 19.3 7.2" fill="none" stroke="#0C7A62" stroke-width="2" stroke-linecap="round" stroke-linejoin="round"/></g><text x="1187.3" y="314.5" fill="#0C7A62" font-family="Inter, Segoe UI, Roboto, Helvetica, Arial, sans-serif" font-size="12" font-weight="600" text-anchor="start">Approved</text><text x="1148.3" y="314.5" fill="#394656" font-family="JetBrains Mono, ui-monospace, SFMono-Regular, Menlo, Consolas, monospace" font-size="12" font-weight="500" text-anchor="end">2026-09-27 10:02 CT</text>
<rect x="52" y="352" width="1216" height="68" rx="14" fill="#FFFFFF" stroke="#D5DEE8" stroke-width="1"/><circle cx="88" cy="386" r="18" fill="#E8EEF5"/><text x="88" y="391" fill="#173E66" font-family="Inter, Segoe UI, Roboto, Helvetica, Arial, sans-serif" font-size="14" font-weight="700" text-anchor="middle">B</text><text x="120" y="380" fill="#1A2433" font-family="Inter, Segoe UI, Roboto, Helvetica, Arial, sans-serif" font-size="15" font-weight="700" text-anchor="start">Custodian B</text><text x="120" y="402" fill="#394656" font-family="Inter, Segoe UI, Roboto, Helvetica, Arial, sans-serif" font-size="12" font-weight="500" text-anchor="start">Counsel of record</text><rect x="1169.45" y="373" width="82.55" height="26" rx="13" fill="#FFF4D8"/><g transform="translate(1177.45 379) scale(0.58)"><circle cx="12" cy="12" r="8" fill="none" stroke="#8A5A00" stroke-width="2"/><path d="M12 7.5V12l3.3 2.2" fill="none" stroke="#8A5A00" stroke-width="2" stroke-linecap="round" stroke-linejoin="round"/></g><text x="1196.45" y="390.5" fill="#8A5A00" font-family="Inter, Segoe UI, Roboto, Helvetica, Arial, sans-serif" font-size="12" font-weight="600" text-anchor="start">Pending</text>
<rect x="52" y="428" width="1216" height="68" rx="14" fill="#FFFFFF" stroke="#D5DEE8" stroke-width="1"/><circle cx="88" cy="462" r="18" fill="#E8EEF5"/><text x="88" y="467" fill="#173E66" font-family="Inter, Segoe UI, Roboto, Helvetica, Arial, sans-serif" font-size="14" font-weight="700" text-anchor="middle">C</text><text x="120" y="456" fill="#1A2433" font-family="Inter, Segoe UI, Roboto, Helvetica, Arial, sans-serif" font-size="15" font-weight="700" text-anchor="start">Custodian C</text><text x="120" y="478" fill="#394656" font-family="Inter, Segoe UI, Roboto, Helvetica, Arial, sans-serif" font-size="12" font-weight="500" text-anchor="start">Special master</text><rect x="1169.45" y="449" width="82.55" height="26" rx="13" fill="#FFF4D8"/><g transform="translate(1177.45 455) scale(0.58)"><circle cx="12" cy="12" r="8" fill="none" stroke="#8A5A00" stroke-width="2"/><path d="M12 7.5V12l3.3 2.2" fill="none" stroke="#8A5A00" stroke-width="2" stroke-linecap="round" stroke-linejoin="round"/></g><text x="1196.45" y="466.5" fill="#8A5A00" font-family="Inter, Segoe UI, Roboto, Helvetica, Arial, sans-serif" font-size="12" font-weight="600" text-anchor="start">Pending</text>
<text x="52" y="520" fill="#394656" font-family="Inter, Segoe UI, Roboto, Helvetica, Arial, sans-serif" font-size="12" font-weight="600" text-anchor="start">Quorum</text>
<text x="1268" y="520" fill="#8A5A00" font-family="Inter, Segoe UI, Roboto, Helvetica, Arial, sans-serif" font-size="12" font-weight="700" text-anchor="end">Awaiting approvals</text>
<rect x="52" y="528" width="1216" height="10" rx="5" fill="#E1E8EF"/><rect x="52" y="528" width="608" height="10" rx="5" fill="#8A5A00"/>
<text x="52" y="562" fill="#394656" font-family="Inter, Segoe UI, Roboto, Helvetica, Arial, sans-serif" font-size="12" font-weight="600" text-anchor="start">Legal process ref</text><rect x="52" y="570" width="600" height="44" rx="10" fill="#FFFFFF" stroke="#C5D0DC" stroke-width="1.25"/><g transform="translate(64 582) scale(0.83)"><path d="M6.8 3h6.4L18.4 8.2V21H6.8Z" fill="none" stroke="#394656" stroke-width="1.8" stroke-linecap="round" stroke-linejoin="round"/><path d="M13.1 3.2V8.4h5.2" fill="none" stroke="#394656" stroke-width="1.8" stroke-linecap="round" stroke-linejoin="round"/></g><text x="92" y="597" fill="#1A2433" font-family="JetBrains Mono, ui-monospace, SFMono-Regular, Menlo, Consolas, monospace" font-size="14" font-weight="500" text-anchor="start">SUBPOENA-4419-B</text>
<text x="668" y="562" fill="#394656" font-family="Inter, Segoe UI, Roboto, Helvetica, Arial, sans-serif" font-size="12" font-weight="600" text-anchor="start">Working copy expiry</text><rect x="668" y="570" width="600" height="44" rx="10" fill="#FFFFFF" stroke="#C5D0DC" stroke-width="1.25"/><g transform="translate(680 582) scale(0.83)"><circle cx="12" cy="12" r="8" fill="none" stroke="#394656" stroke-width="1.8"/><path d="M12 7.5V12l3.3 2.2" fill="none" stroke="#394656" stroke-width="1.8" stroke-linecap="round" stroke-linejoin="round"/></g><text x="708" y="597" fill="#1A2433" font-family="Inter, Segoe UI, Roboto, Helvetica, Arial, sans-serif" font-size="14" font-weight="500" text-anchor="start">72 hours</text><g transform="translate(1236 582) scale(0.75)"><path d="M5.6 9 12 15.4 18.4 9" fill="none" stroke="#394656" stroke-width="1.9" stroke-linecap="round" stroke-linejoin="round"/></g>
<text x="52" y="636" fill="#394656" font-family="Inter, Segoe UI, Roboto, Helvetica, Arial, sans-serif" font-size="12" font-weight="500" text-anchor="start">expires_at preview  2026-09-30 10:02 CT</text>
<rect x="52" y="650" width="280" height="44" rx="12" fill="#173E66"/><g transform="translate(74.12 663) scale(0.75)"><circle cx="12" cy="8.8" r="3.2" fill="none" stroke="#FFFFFF" stroke-width="1.9"/><path d="M5.1 19.6c1.2-3.1 3.5-4.6 6.9-4.6s5.7 1.5 6.9 4.6" fill="none" stroke="#FFFFFF" stroke-width="1.9" stroke-linecap="round" stroke-linejoin="round"/></g><text x="100.12" y="677.5" fill="#FFFFFF" font-family="Inter, Segoe UI, Roboto, Helvetica, Arial, sans-serif" font-size="15" font-weight="600" text-anchor="start">Request custodian approvals</text>
<rect x="344" y="650" width="230" height="44" rx="12" fill="#E6ECF1"/><g transform="translate(371.27 663) scale(0.75)"><circle cx="12" cy="9.6" r="5.2" fill="none" stroke="#3D4A5A" stroke-width="1.9"/><path d="M9.2 14.2 8 20.6 12 18.4 16 20.6 14.8 14.2" fill="none" stroke="#3D4A5A" stroke-width="1.9" stroke-linecap="round" stroke-linejoin="round"/><path d="M9.5 9.8 11.3 11.6 14.8 8.2" fill="none" stroke="#3D4A5A" stroke-width="1.9" stroke-linecap="round" stroke-linejoin="round"/></g><text x="397.27" y="677.5" fill="#3D4A5A" font-family="Inter, Segoe UI, Roboto, Helvetica, Arial, sans-serif" font-size="15" font-weight="600" text-anchor="start">Attach CourtRelease</text>
<rect x="586" y="650" width="120" height="44" rx="12" fill="#FFFFFF" stroke="#C5D0DC" stroke-width="1.25"/><g transform="translate(607.82 663) scale(0.75)"><path d="M6 6 18 18" fill="none" stroke="#1A2433" stroke-width="1.9" stroke-linecap="round" stroke-linejoin="round"/><path d="M18 6 6 18" fill="none" stroke="#1A2433" stroke-width="1.9" stroke-linecap="round" stroke-linejoin="round"/></g><text x="633.82" y="677.5" fill="#1A2433" font-family="Inter, Segoe UI, Roboto, Helvetica, Arial, sans-serif" font-size="15" font-weight="600" text-anchor="start">Cancel</text>
<rect x="24" y="816" width="1272" height="34" rx="0" fill="#F4F7FA"/>
<line x1="24" y1="816" x2="1296" y2="816" stroke="#D5DEE8" stroke-width="1"/>
<g transform="translate(52 825) scale(0.67)"><path d="M12 3v17.2" fill="none" stroke="#394656" stroke-width="1.7" stroke-linecap="round" stroke-linejoin="round"/><path d="M7.8 20.6h8.4" fill="none" stroke="#394656" stroke-width="1.7" stroke-linecap="round" stroke-linejoin="round"/><path d="M4.2 7.2h15.6" fill="none" stroke="#394656" stroke-width="1.7" stroke-linecap="round" stroke-linejoin="round"/><path d="M4.2 7.2 2.6 13.2" fill="none" stroke="#394656" stroke-width="1.7" stroke-linecap="round" stroke-linejoin="round"/><path d="M4.2 7.2 5.8 13.2" fill="none" stroke="#394656" stroke-width="1.7" stroke-linecap="round" stroke-linejoin="round"/><path d="M2.6 13.2h3.2" fill="none" stroke="#394656" stroke-width="1.7" stroke-linecap="round" stroke-linejoin="round"/><path d="M2.6 13.2Q4.2 16.4 5.8 13.2" fill="none" stroke="#394656" stroke-width="1.7" stroke-linecap="round" stroke-linejoin="round"/><path d="M19.8 7.2 18.2 13.2" fill="none" stroke="#394656" stroke-width="1.7" stroke-linecap="round" stroke-linejoin="round"/><path d="M19.8 7.2 21.4 13.2" fill="none" stroke="#394656" stroke-width="1.7" stroke-linecap="round" stroke-linejoin="round"/><path d="M18.2 13.2h3.2" fill="none" stroke="#394656" stroke-width="1.7" stroke-linecap="round" stroke-linejoin="round"/><path d="M18.2 13.2Q19.8 16.4 21.4 13.2" fill="none" stroke="#394656" stroke-width="1.7" stroke-linecap="round" stroke-linejoin="round"/></g>
<text x="74" y="837.5" fill="#394656" font-family="Inter, Segoe UI, Roboto, Helvetica, Arial, sans-serif" font-size="12" font-weight="600" text-anchor="start">GPL-2.0</text>
<text x="660" y="837.5" fill="#394656" font-family="Inter, Segoe UI, Roboto, Helvetica, Arial, sans-serif" font-size="12" font-weight="500" text-anchor="middle">Bitcoin OpenTimestamps (btc-ots)</text>
<g transform="translate(1163.62 825) scale(0.67)"><path d="M12 3.4 21.2 8.6 12 13.8 2.8 8.6Z" fill="none" stroke="#394656" stroke-width="1.7" stroke-linecap="round" stroke-linejoin="round"/><path d="M6 12.4 12 15.8 18 12.4" fill="none" stroke="#394656" stroke-width="1.7" stroke-linecap="round" stroke-linejoin="round"/><path d="M6 15.8 12 19.2 18 15.8" fill="none" stroke="#394656" stroke-width="1.7" stroke-linecap="round" stroke-linejoin="round"/></g>
<text x="1268" y="837.5" fill="#394656" font-family="Inter, Segoe UI, Roboto, Helvetica, Arial, sans-serif" font-size="12" font-weight="600" text-anchor="end">Avalonia UI 12</text>
</g>
<rect x="24" y="18" width="1272" height="832" rx="12" fill="none" stroke="#C5D0DC" stroke-width="1.25"/>
</svg>
